<?xml version="1.0" encoding="UTF-8"?>
<svg id="Capa_1" data-name="Capa 1" xmlns="http://www.w3.org/2000/svg" viewBox="0 0 343.5 348">
  <defs>
    <style>
      .cls-1 {
        stroke-width: 0px;
      }
    </style>
  </defs>
  <path class="cls-1" d="m0,3.89s57.22,3.83,62.79,67.9v56.79c-2.46.2-6.03.56-10.29,1.23-9.07,1.42-15.65,2.46-23.3,6.05-7.03,3.3-11.8,7.28-14.46,9.54-5.25,4.44-8.82,8.75-10.57,10.89-1.77,2.17-3.17,4.08-4.17,5.5V3.89Z"/>
  <path class="cls-1" d="m0,243.92v-46.04c0-10.15,12.43-57.19,60.65-57.19h45.74s-9.48,42.54-.04,67.39h-46.23c-29.62,3.7-43.45,11.25-60.11,35.84Z"/>
  <path class="cls-1" d="m62.79,219.44c-5.97-.09-22.36.46-37.71,11.79C.95,249.02.05,278.16,0,281.79v64.07c5.32-.72,28.8-4.5,46.29-25.71,16.54-20.07,16.64-42.32,16.5-48v-52.71Z"/>
  <path class="cls-1" d="m122.58,219.43h-59.79c1.23,9.55,3.9,22.85,10.29,37.51,21.07,48.33,70.97,84.78,126,90.32,34.37,3.46,62.58-5.95,79.39-13.5-14.34,1.28-43.74,1.81-74.57-13.82-22.54-11.43-37.22-27.12-44.04-35.36-7.23-8.73-12.36-17.23-21.11-31.71-4.1-6.79-8.48-14.5-12.75-24.64-1.51-3.58-2.65-6.62-3.43-8.79Z"/>
  <path class="cls-1" d="m300,243.44l43.5,37.07c-4.41,6.92-21.04,31.16-54,41.79-35.25,11.37-64.72-.73-71.79-3.86-11.97-4.47-30.3-13.09-48.05-29.68-11.71-10.94-19.7-22.11-25.02-30.96,6.77,6.73,18.66,16.87,36.11,24.21,15.8,6.65,29.94,8.38,39.11,8.79,9.74-.99,27.54-4.1,46.39-15.54,17.65-10.71,28.28-23.91,33.75-31.82Z"/>
  <path class="cls-1" d="m122.58,128.57h-59.79c1.23-9.55,3.9-22.85,10.29-37.51C94.14,42.73,144.04,6.28,199.08.74c34.37-3.46,62.58,5.95,79.39,13.5-14.34-1.28-43.74-1.81-74.57,13.82-22.54,11.43-37.22,27.12-44.04,35.36-7.23,8.73-12.36,17.23-21.11,31.71-4.1,6.79-8.48,14.5-12.75,24.64-1.51,3.58-2.65,6.62-3.43,8.79Z"/>
  <path class="cls-1" d="m300,104.56l43.5-37.07c-4.41-6.92-21.04-31.16-54-41.79-35.25-11.37-64.72.73-71.79,3.86-11.97,4.47-30.3,13.09-48.05,29.68-11.71,10.94-19.7,22.11-25.02,30.96,6.77-6.73,18.66-16.87,36.11-24.21,15.8-6.65,29.94-8.38,39.11-8.79,9.74.99,27.54,4.1,46.39,15.54,17.65,10.71,28.28,23.91,33.75,31.82Z"/>
  <path class="cls-1" d="m245.79,270.01v-62.14h65.57c1.93-8.44,3.61-19.16,3.75-31.61.16-13.99-1.67-25.93-3.75-35.04-7.63-.59-53.3-3.37-90.75,31.18-41.61,38.39-38.54,91-38.04,97.61,5.55,2.93,17.84,8.44,34.18,7.82,13.48-.51,23.65-4.97,29.04-7.82"/>
  <path class="cls-1" d="m182.61,77.75v62.14h-65.57c-1.93,8.44-3.61,19.16-3.75,31.61-.16,13.99,1.67,25.93,3.75,35.04,7.63.59,53.3,3.37,90.75-31.18,41.61-38.39,38.54-91,38.04-97.61-5.55-2.93-17.84-8.44-34.18-7.82-13.48.51-23.65,4.97-29.04,7.82"/>
</svg>