<?xml version="1.0" encoding="utf-8"?>
<!-- Generator: Adobe Illustrator 28.0.0, SVG Export Plug-In . SVG Version: 6.00 Build 0)  -->
<svg version="1.1" xmlns="http://www.w3.org/2000/svg" xmlns:xlink="http://www.w3.org/1999/xlink" x="0px" y="0px"
	 viewBox="0 0 393.11 457.71" style="enable-background:new 0 0 393.11 457.71;" xml:space="preserve">
<style type="text/css">
	.st0{fill:#0784AF;}
	.st1{fill:#FFFFFF;}
	.st2{fill:#193D6E;}
	.st3{fill:#00ACAC;}
</style>
<g id="Capa_1">
</g>
<g id="Capa_2">
	<path class="st0" d="M279.75,34.39v310.5c0,15.44-12.52,27.96-27.96,27.96h-89.68c-15.44,0-27.96-12.52-27.96-27.96v-91.61H49.29
		c-15.44,0-27.96-12.52-27.96-27.96v-80.04c0-15.44,12.52-27.96,27.96-27.96h84.86V34.39c0-15.44,12.52-27.96,27.96-27.96h89.68
		C267.23,6.43,279.75,18.95,279.75,34.39z"/>
	<path class="st1" d="M385.5,72.86c-21.22,27.19-35.88,51.36-45.64,69.21c-5.93,10.84-14.1,26.69-23.72,48.33
		c-14.39,32.39-17.65,47.22-36.39,78.32c-19.41,32.2-47.35,76.01-100.48,100.89c-26.05,12.21-50.26,16.09-66.99,17.39
		c16.84-10.48,39.42-28.17,55.93-55.93c12.81-21.52,14.92-37.25,15.43-41.78c1.03-9.22,2.72-24.33-4.5-37.93
		c-10.03-18.89-34.21-29.11-61.07-28.29c4.65-6.32,13.24-16.2,27-23.78c22.15-12.2,43.55-10.65,51.65-9.64
		c-7.02-7.6-11.31-17.77-11.31-28.93c0-23.57,19.1-42.67,42.67-42.67c23.56,0,42.67,19.1,42.67,42.67c0,0.49-0.01,0.97-0.03,1.45
		c16.62-15.23,27.94-26.59,31.09-29.67C315.24,119.29,339.24,99.68,385.5,72.86z"/>
	<circle class="st2" cx="228" cy="161.45" r="31.82"/>
	<path class="st2" d="M229.61,208.61c-9.94-3.39-26.55-7.65-47.25-6.43c-24.02,1.42-42.07,9.54-51.75,14.79
		c3.32,0.05,45.3,1.26,62.68,31.82c16.04,28.2-0.56,60.86-9,77.46c-13.27,26.11-32.8,41.28-43.71,48.54
		c17.6-6.68,43.21-18.69,68.79-40.5c29.65-25.28,45.68-52.14,61.07-78.43c24.58-41.98,20.26-50.24,44.68-91.93
		c24.53-41.88,51.7-69.76,49.5-71.68c-1.15-1-8.91,6.18-19.61,16.07c-18.36,16.98-33.1,32.75-43.39,44.04
		c-3.17,3.48-15.46,16.99-31.44,33.16c-5.58,5.65-13.56,13.56-26.42,18.91C238.11,206.77,233.12,207.96,229.61,208.61z"/>
	<path class="st3" d="M351.21,128.57c6.56,12.07,15.26,32.13,15.96,57.54c1.35,48.65-27.52,83.55-45.54,105.32
		c-29.67,35.86-62.68,53.2-81.86,63c-38.98,19.92-74.76,27.11-98.14,30c19.31,3.38,57.86,7.45,102.86-6.86
		c13.74-4.37,45.55-16.01,77.14-43.71c3.55-3.12,44.77-40,60.86-90.43c6.52-20.44,6.67-36.08,6.64-40.5
		c-0.05-8.01-0.22-19.65-4.93-32.79C376.29,148.06,360.22,134.8,351.21,128.57z"/>
	<path class="st2" d="M18.75,389.25C12.5,396.11,6.25,402.96,0,409.82c18.41-3.59,48.8-7.1,85.04,0.14
		c43.67,8.72,74.34,28.75,90.13,40.79c8.21,0,16.43,0,24.64,0c16.1-12.19,47.39-32.47,91.82-40.93c34.57-6.58,63.67-3.46,81.96,0
		c-5.68-6.64-11.36-13.29-17.04-19.93c-17.62-1.83-44.73-2.46-76.18,5.79c-40.61,10.64-68.71,30.89-83.57,43.39
		c-6.75,0-13.5,0-20.25,0c-13.9-12-39.94-31.31-77.79-42.43C65.21,386.78,36.31,387.47,18.75,389.25z"/>
	<path class="st2" d="M80.36,333c-9.77,3.89-21.94,9.8-34.71,18.86c-10.38,7.36-18.58,14.98-24.86,21.64
		c17.53-0.68,44.58,0.43,75.43,10.71C144.26,400.23,174,430.5,174,430.5s-20.79-27.65-56.14-45.64c-29.47-15-57.27-18.68-75.21-19.5
		c4.16-4.62,8.92-9.47,14.36-14.36C65.15,343.66,73.12,337.75,80.36,333z"/>
	<path class="st2" d="M335.45,353.73c10.75,6.51,18.31,14.79,23.69,20.95c-9.37-0.45-23.16-0.55-39.64,1.5
		c-17.05,2.12-51.81,6.8-85.22,28.31c0,0-0.49,0.31-35.36,26.09l0,0l0,0c9.96-11.84,26.32-28.3,50.46-41.81
		c36.35-20.34,70.79-23.06,88.45-23.2c-2.6-2.47-5.32-4.98-8.14-7.5L335.45,353.73z"/>
</g>
</svg>
